<svg width="30" height="26" viewBox="0 0 30 26" fill="none" xmlns="http://www.w3.org/2000/svg">
<path d="M19.4999 4.57013C18.7813 4.57013 18.1036 4.85283 17.6018 5.34569C17.0999 4.85283 16.4222 4.57013 15.7036 4.57013C14.2083 4.57013 12.9918 5.7867 12.9918 7.28202C12.9918 8.65325 13.7654 10.0502 15.2291 11.3217C16.3016 12.2533 17.3615 12.7931 17.4061 12.8156C17.4676 12.8467 17.5347 12.8622 17.6018 12.8622C17.6689 12.8622 17.7359 12.8466 17.7975 12.8156C17.842 12.7931 18.902 12.2533 19.9744 11.3217C21.4381 10.0502 22.2118 8.65325 22.2118 7.28202C22.2118 5.7867 20.9952 4.57013 19.4999 4.57013ZM17.6018 11.9338C16.8057 11.4836 13.86 9.65669 13.86 7.28202C13.86 6.26544 14.6871 5.43836 15.7036 5.43836C16.3223 5.43836 16.8968 5.74705 17.2401 6.26411C17.3206 6.38525 17.4563 6.45807 17.6018 6.45807C17.7472 6.45807 17.883 6.38525 17.9634 6.26411C18.3068 5.74705 18.8812 5.43836 19.5 5.43836C20.5165 5.43836 21.3436 6.26544 21.3436 7.28202C21.3436 9.65669 18.3978 11.4836 17.6018 11.9338Z" fill="#FFBB01"/>
<path d="M26.4176 4.57013H24.0976C23.8579 4.57013 23.6635 4.7645 23.6635 5.00425C23.6635 5.24399 23.8579 5.43836 24.0976 5.43836H26.4176C26.6574 5.43836 26.8517 5.24399 26.8517 5.00425C26.8517 4.7645 26.6574 4.57013 26.4176 4.57013Z" fill="#FFBB01"/>
<path d="M25.4896 9.21008H24.0976C23.8579 9.21008 23.6635 9.40445 23.6635 9.6442C23.6635 9.88395 23.8579 10.0783 24.0976 10.0783H25.4896C25.7293 10.0783 25.9237 9.88395 25.9237 9.6442C25.9237 9.40445 25.7293 9.21008 25.4896 9.21008Z" fill="#FFBB01"/>
<path d="M26.4176 6.89023H24.0976C23.8579 6.89023 23.6635 7.0846 23.6635 7.32434C23.6635 7.56409 23.8579 7.75846 24.0976 7.75846H26.4176C26.6574 7.75846 26.8517 7.56409 26.8517 7.32434C26.8517 7.0846 26.6574 6.89023 26.4176 6.89023Z" fill="#FFBB01"/>
<path d="M8.78601 11.4703C9.02576 11.4703 9.22013 11.2759 9.22013 11.0361C9.22013 10.7964 9.02576 10.602 8.78601 10.602H7.85822C7.61847 10.602 7.4241 10.7964 7.4241 11.0361C7.4241 11.2759 7.61847 11.4703 7.85822 11.4703H8.78601Z" fill="#FFBB01"/>
<path d="M4.14592 11.4703H6.00197C6.24172 11.4703 6.43609 11.2759 6.43609 11.0361C6.43609 10.7964 6.24172 10.602 6.00197 10.602H4.14592C3.90618 10.602 3.71181 10.7964 3.71181 11.0361C3.71181 11.2759 3.90618 11.4703 4.14592 11.4703Z" fill="#FFBB01"/>
<path d="M4.14592 13.7904H8.78587C9.02561 13.7904 9.21998 13.596 9.21998 13.3563C9.21998 13.1165 9.02561 12.9221 8.78587 12.9221H4.14592C3.90618 12.9221 3.71181 13.1165 3.71181 13.3563C3.71181 13.596 3.90618 13.7904 4.14592 13.7904Z" fill="#FFBB01"/>
<path d="M9.21998 15.6761C9.21998 15.4364 9.02561 15.242 8.78587 15.242H4.14592C3.90618 15.242 3.71181 15.4364 3.71181 15.6761C3.71181 15.9159 3.90618 16.1102 4.14592 16.1102H8.78587C9.02561 16.1102 9.21998 15.9159 9.21998 15.6761Z" fill="#FFBB01"/>
<path d="M7.8581 18.4301H15.2819C15.5216 18.4301 15.716 18.2357 15.716 17.996C15.716 17.7562 15.5216 17.5619 15.2819 17.5619H7.8581C7.61835 17.5619 7.42398 17.7562 7.42398 17.996C7.42398 18.2357 7.61835 18.4301 7.8581 18.4301Z" fill="#FFBB01"/>
<path d="M4.14592 17.5619C3.90618 17.5619 3.71181 17.7562 3.71181 17.996C3.71181 18.2357 3.90618 18.4301 4.14592 18.4301H6.00197C6.24172 18.4301 6.43609 18.2357 6.43609 17.996C6.43609 17.7562 6.24172 17.5619 6.00197 17.5619H4.14592Z" fill="#FFBB01"/>
<path d="M25.4896 11.5302H24.0976C23.8579 11.5302 23.6635 11.7245 23.6635 11.9643C23.6635 12.204 23.8579 12.3984 24.0976 12.3984H25.4896C25.7293 12.3984 25.9237 12.204 25.9237 11.9643C25.9237 11.7245 25.7293 11.5302 25.4896 11.5302Z" fill="#FFBB01"/>
<path d="M27.8096 0.858307H12.0339C11.027 0.858307 10.2078 1.67745 10.2078 2.68437V14.2841C10.2078 15.291 11.027 16.1102 12.0339 16.1102H22.0619L25.3185 19.3669C25.4908 19.5391 25.7194 19.6304 25.9527 19.6304C26.0685 19.6304 26.1855 19.6079 26.2973 19.5616C26.6341 19.4221 26.8517 19.0964 26.8517 18.7318V16.1102H27.8096C28.8165 16.1102 29.6356 15.2911 29.6356 14.2842V2.68437C29.6356 1.67745 28.8165 0.858307 27.8096 0.858307ZM28.7674 14.2842C28.7674 14.8123 28.3378 15.242 27.8096 15.242H26.4176C26.1779 15.242 25.9835 15.4364 25.9835 15.6761V18.7318C25.9835 18.7421 25.9835 18.7518 25.965 18.7594C25.9466 18.767 25.9398 18.7602 25.9325 18.753L22.5487 15.3692C22.4673 15.2877 22.3569 15.242 22.2417 15.242H12.0339C11.5057 15.242 11.076 14.8123 11.076 14.2842V2.68437C11.076 2.1562 11.5057 1.72654 12.0339 1.72654H27.8095C28.3377 1.72654 28.7674 2.1562 28.7674 2.68437V14.2842H28.7674Z" fill="#FFBB01"/>
<path d="M18.9937 17.098C18.754 17.098 18.5596 17.2923 18.5596 17.5321V20.316C18.5596 20.8442 18.1299 21.2739 17.6018 21.2739H7.39397C7.27885 21.2739 7.16841 21.3196 7.08703 21.401L3.70324 24.7849C3.696 24.7921 3.68906 24.799 3.67065 24.7914C3.65219 24.7837 3.65219 24.774 3.65219 24.7638V21.708C3.65219 21.4683 3.45782 21.2739 3.21807 21.2739H1.82606C1.29789 21.2739 0.868231 20.8443 0.868231 20.3161V8.71629C0.868231 8.18812 1.29789 7.75846 1.82606 7.75846H8.78604C9.02579 7.75846 9.22015 7.56409 9.22015 7.32434C9.22015 7.0846 9.02579 6.89023 8.78604 6.89023H1.82606C0.819147 6.89023 0 7.70937 0 8.71629V20.316C0 21.323 0.819147 22.1421 1.82606 22.1421H2.7839V24.7637C2.7839 25.1282 3.00153 25.4539 3.33835 25.5934C3.45012 25.6397 3.5671 25.6623 3.68298 25.6623C3.91624 25.6623 4.14488 25.571 4.31714 25.3988L7.57381 22.1421H17.6018C18.6087 22.1421 19.4279 21.323 19.4279 20.316V17.5321C19.4278 17.2923 19.2335 17.098 18.9937 17.098Z" fill="#FFBB01"/>
</svg>
