<svg width="30" height="31" viewBox="0 0 30 31" fill="none" xmlns="http://www.w3.org/2000/svg">
<path d="M29.8305 1.1331C29.7219 1.02457 29.5746 0.963562 29.4211 0.963562L15.182 0.964314C14.8624 0.964314 14.6033 1.22352 14.6033 1.54315V3.19845L9.11655 4.66863C8.80774 4.7514 8.62448 5.06878 8.70725 5.37753L11.5509 15.99L9.0909 18.45C8.77781 17.9928 8.25211 17.6922 7.65748 17.6922H2.10083C1.14332 17.6922 0.36438 18.4712 0.36438 19.4286V28.8634C0.36438 29.8209 1.14332 30.5999 2.10083 30.5999H7.65753C8.47097 30.5999 9.15527 30.0375 9.34281 29.2814L10.031 29.8815C10.5624 30.3448 11.2431 30.6 11.948 30.6H29.4212C29.7408 30.6 30 30.3408 30 30.0212V1.5424C29.9999 1.38889 29.939 1.24163 29.8305 1.1331ZM8.23625 28.8635C8.23625 29.1826 7.97659 29.4423 7.65742 29.4423H2.10077C1.7816 29.4423 1.52194 29.1827 1.52194 28.8635V19.4287C1.52194 19.1095 1.7816 18.8499 2.10077 18.8499H4.30029V25.5178C4.30029 25.8374 4.55949 26.0966 4.87912 26.0966C5.19876 26.0966 5.45796 25.8374 5.45796 25.5178V18.8499H7.65748C7.97665 18.8499 8.23631 19.1095 8.23631 19.4287V28.8635H8.23625ZM9.97525 5.63702L14.6033 4.39692V6.5418L14.2153 6.64576C14.067 6.68552 13.9406 6.78248 13.8639 6.91544C13.7871 7.0484 13.7663 7.20636 13.806 7.35466C14.0285 8.18477 13.5341 9.04104 12.704 9.26348C12.5555 9.30331 12.4289 9.40044 12.3522 9.53368C12.2755 9.66687 12.2549 9.82513 12.295 9.97354L14.5512 18.3283H13.3895L12.7908 15.9861C12.7718 15.9116 12.7384 15.8429 12.6938 15.7831L9.97525 5.63702ZM14.6033 9.19628V14.0806L13.5475 10.1714C13.9885 9.94367 14.3495 9.60297 14.6033 9.19628ZM22.9191 29.4423H11.9479C11.5228 29.4423 11.1122 29.2884 10.7918 29.009L9.39393 27.7899V19.7842L11.921 17.2571L12.3793 19.0504C12.4449 19.3066 12.6756 19.4858 12.9401 19.4858L24.3202 19.4865C24.7671 19.4865 25.1306 19.85 25.1306 20.2969C25.1306 20.7438 24.7671 21.1073 24.3202 21.1073H18.4891C18.1694 21.1073 17.9102 21.3665 17.9102 21.6861C17.9102 22.0057 18.1694 22.2649 18.4891 22.2649H26.132C26.5789 22.2649 26.9424 22.6284 26.9424 23.0753C26.9424 23.5222 26.5789 23.8857 26.132 23.8857H18.4891C18.1694 23.8857 17.9102 24.1449 17.9102 24.4645C17.9102 24.7841 18.1694 25.0434 18.4891 25.0434H24.8935C25.3403 25.0434 25.7038 25.4069 25.7038 25.8537C25.7038 26.3006 25.3403 26.6641 24.8935 26.6641H18.4891C18.1694 26.6641 17.9102 26.9233 17.9102 27.2429C17.9102 27.5626 18.1694 27.8218 18.4891 27.8218H22.9191C23.3659 27.8218 23.7294 28.1853 23.7294 28.6321C23.7294 29.0788 23.3659 29.4423 22.9191 29.4423ZM28.8423 29.4423H28.8423H24.7118C24.824 29.1949 24.887 28.9207 24.887 28.6319C24.887 28.3431 24.824 28.0689 24.7118 27.8215H24.8935C25.9786 27.8215 26.8614 26.9387 26.8614 25.8535C26.8614 25.537 26.7859 25.238 26.6525 24.9727C27.4858 24.7439 28.0999 23.9801 28.0999 23.0752C28.0999 22.6362 27.9553 22.2304 27.7115 21.9028V14.5666C27.7115 14.247 27.4523 13.9878 27.1326 13.9878C26.813 13.9878 26.5538 14.247 26.5538 14.5666V21.1533C26.4178 21.1235 26.2767 21.1073 26.1319 21.1073H26.1129C26.2251 20.8599 26.2882 20.5857 26.2882 20.2969C26.2882 19.2117 25.4053 18.3289 24.3202 18.3289H23.3897C24.3777 17.9052 25.0716 16.9232 25.0716 15.7818C25.0716 14.2543 23.829 13.0116 22.3015 13.0116C20.7741 13.0116 19.5314 14.2543 19.5314 15.7818C19.5314 16.9232 20.2253 17.9052 21.2133 18.3289H18.0492V7.32282C19.0832 7.09748 19.8992 6.28161 20.1244 5.24752H24.4785C24.7038 6.28161 25.5197 7.09748 26.5537 7.32282V9.12242C26.5537 9.44206 26.8129 9.70126 27.1326 9.70126C27.4522 9.70126 27.7114 9.44206 27.7114 9.12242V6.80604C27.7114 6.4864 27.4522 6.2272 27.1326 6.2272C26.2732 6.2272 25.5741 5.52803 25.5741 4.66869C25.5741 4.34906 25.3149 4.08985 24.9953 4.08985H19.6077C19.2881 4.08985 19.0289 4.34906 19.0289 4.66869C19.0289 5.52809 18.3298 6.2272 17.4704 6.2272C17.1508 6.2272 16.8916 6.4864 16.8916 6.80604V18.3289H15.761V2.12187L28.8423 2.12123V29.4423ZM22.3016 17.3943C21.4125 17.3943 20.6892 16.6709 20.6892 15.7818C20.6892 14.8927 21.4125 14.1693 22.3016 14.1693C23.1907 14.1693 23.9141 14.8927 23.9141 15.7818C23.9141 16.6708 23.1908 17.3943 22.3016 17.3943Z" fill="#FFBB01"/>
</svg>
