<svg width="30" height="32" viewBox="0 0 30 32" fill="none" xmlns="http://www.w3.org/2000/svg">
<path d="M15.6759 19.9562C16.2228 19.9136 16.7213 19.6347 17.0449 19.1897L21.9634 12.3901C22.1142 12.1815 22.0916 11.8936 21.9088 11.7108C21.726 11.5285 21.4381 11.5059 21.2296 11.6562L14.4288 16.5763C13.9855 16.8988 13.7065 17.3974 13.664 17.9442C13.6214 18.4911 13.8195 19.0264 14.2066 19.4135C14.5591 19.7665 15.0345 19.9619 15.5289 19.9619C15.5777 19.9619 15.6266 19.9598 15.6759 19.9562ZM14.7115 18.0262C14.7298 17.7861 14.8528 17.567 15.0461 17.4262L19.1945 14.4251L16.1944 18.5725C16.0526 18.7674 15.8335 18.8898 15.5935 18.9087C15.3544 18.9244 15.1196 18.8414 14.9489 18.6707C14.7798 18.501 14.6925 18.2657 14.7115 18.0262Z" fill="#FFBB01"/>
<path d="M27.443 10.2773C27.4377 10.2662 27.4377 10.2547 27.432 10.2436C27.4257 10.2331 27.4157 10.2274 27.4088 10.2174C26.8778 9.30648 26.2495 8.45915 25.5361 7.69114L26.6645 6.56329L27.4073 7.30608L29.6357 5.07717L27.4073 2.84878L25.1784 5.07717L25.9217 5.82049L24.7933 6.94834C24.0253 6.23497 23.1785 5.60616 22.2671 5.07507C22.2571 5.06824 22.2513 5.05826 22.2408 5.05196C22.2298 5.04565 22.2182 5.04618 22.2072 5.0404C20.5824 4.10429 18.7569 3.48074 16.8106 3.25223V2.62658H17.5986C18.323 2.62658 18.9119 2.0377 18.9119 1.31329C18.9119 0.588878 18.3225 0 17.5981 0H12.8702C12.1458 0 11.5569 0.588878 11.5569 1.31329C11.5569 2.0377 12.1458 2.62658 12.8702 2.62658H13.6582V3.23384C13.0909 3.29425 12.5246 3.38671 11.9646 3.51488C11.682 3.5795 11.5049 3.86159 11.5701 4.14421C11.6347 4.42683 11.9168 4.60439 12.1994 4.53872C12.6827 4.42788 13.1707 4.34436 13.6598 4.28815L14.2234 4.24455C14.3957 4.23141 14.5544 4.22196 14.7088 4.2146V5.25315C14.7088 5.54365 14.9436 5.77847 15.2341 5.77847C15.5246 5.77847 15.7595 5.54365 15.7595 5.25315V4.21828C17.7352 4.30916 19.5969 4.83973 21.2522 5.7128L20.7342 6.60951C20.5892 6.86114 20.6754 7.18211 20.9265 7.3271C21.0089 7.3749 21.0993 7.39749 21.1886 7.39749C21.3704 7.39749 21.5469 7.30346 21.644 7.13483L22.1604 6.24022C23.8041 7.28297 25.2004 8.67926 26.2432 10.323L25.3486 10.8394C25.098 10.9843 25.0118 11.3053 25.1573 11.5569C25.2551 11.7256 25.431 11.8196 25.6128 11.8196C25.7021 11.8196 25.7925 11.797 25.8749 11.7492L26.7716 11.2312C27.6568 12.9101 28.1889 14.8023 28.2683 16.8096H27.2308C26.9403 16.8096 26.7055 17.0444 26.7055 17.3349C26.7055 17.6254 26.9403 17.8602 27.2308 17.8602H28.2683C28.1889 19.8674 27.6568 21.7596 26.7716 23.4385L25.8749 22.9205C25.6238 22.7756 25.3023 22.8607 25.1573 23.1128C25.0124 23.3644 25.0985 23.6854 25.3496 23.8304L26.2442 24.3468C25.2015 25.9905 23.8052 27.3868 22.1615 28.4295L21.6451 27.5349C21.4996 27.2828 21.1776 27.1971 20.9275 27.3427C20.6759 27.4876 20.5897 27.8091 20.7352 28.0602L21.2532 28.9569C19.5979 29.83 17.7362 30.3606 15.7605 30.4515V29.4176C15.7605 29.1271 15.5257 28.8923 15.2352 28.8923C14.9447 28.8923 14.7099 29.1271 14.7099 29.4176V30.4557C13.871 30.4268 13.0294 30.3217 12.201 30.1315C11.9184 30.0638 11.6363 30.2434 11.5716 30.5261C11.5065 30.8087 11.6835 31.0908 11.9662 31.1554C13.0147 31.397 14.0858 31.5189 15.1485 31.5189C15.1743 31.5189 15.1989 31.5173 15.2247 31.5168C15.2284 31.5168 15.231 31.5189 15.2341 31.5189C15.2383 31.5189 15.242 31.5163 15.2462 31.5163C17.7714 31.4989 20.1406 30.8171 22.1904 29.6393C22.2067 29.632 22.224 29.6283 22.2397 29.6188C22.2503 29.6125 22.256 29.6026 22.266 29.5957C24.3878 28.3591 26.1607 26.5883 27.3999 24.4681C27.4099 24.4539 27.4225 24.4429 27.4314 24.4272C27.4377 24.4161 27.4372 24.4046 27.4425 24.3935C28.6423 22.3133 29.332 19.9042 29.332 17.3354C29.332 14.7666 28.6423 12.3575 27.443 10.2773ZM27.4067 4.33438L28.1495 5.07717L27.4067 5.82049L26.6634 5.07717L27.4067 4.33438ZM14.7088 3.16292V1.57595H12.8702C12.7258 1.57595 12.6076 1.45775 12.6076 1.31329C12.6076 1.16883 12.7258 1.05063 12.8702 1.05063H17.5981C17.7425 1.05063 17.8607 1.16883 17.8607 1.31329C17.8607 1.45775 17.7425 1.57595 17.5981 1.57595H15.7595V3.16292C15.5767 3.15557 15.4022 3.15189 15.2341 3.15189C15.2194 3.15189 15.2026 3.15294 15.1879 3.15294C15.1748 3.15294 15.1617 3.15189 15.1485 3.15189C15.0624 3.15189 14.9762 3.15767 14.8901 3.15925C14.8291 3.16082 14.7719 3.1603 14.7088 3.16292Z" fill="#FFBB01"/>
<path d="M10.5064 7.35452H7.87984C7.58934 7.35452 7.35452 7.58934 7.35452 7.87984C7.35452 8.17034 7.58934 8.40515 7.87984 8.40515H10.5064C10.7969 8.40515 11.0317 8.17034 11.0317 7.87984C11.0317 7.58934 10.7969 7.35452 10.5064 7.35452Z" fill="#FFBB01"/>
<path d="M10.5063 11.0316H5.25314C4.96264 11.0316 4.72782 11.2664 4.72782 11.5569C4.72782 11.8474 4.96264 12.0822 5.25314 12.0822H10.5063C10.7968 12.0822 11.0316 11.8474 11.0316 11.5569C11.0316 11.2664 10.7968 11.0316 10.5063 11.0316Z" fill="#FFBB01"/>
<path d="M10.5063 14.7087H2.62656C2.33606 14.7087 2.10124 14.9435 2.10124 15.234C2.10124 15.5245 2.33606 15.7593 2.62656 15.7593H10.5063C10.7968 15.7593 11.0316 15.5245 11.0316 15.234C11.0316 14.9435 10.7968 14.7087 10.5063 14.7087Z" fill="#FFBB01"/>
<path d="M10.5063 18.3861H0.525315C0.234816 18.3861 0 18.6209 0 18.9114C0 19.2019 0.234816 19.4367 0.525315 19.4367H10.5063C10.7968 19.4367 11.0316 19.2019 11.0316 18.9114C11.0316 18.6209 10.7968 18.3861 10.5063 18.3861Z" fill="#FFBB01"/>
<path d="M10.5062 22.0632H3.67712C3.38662 22.0632 3.1518 22.298 3.1518 22.5885C3.1518 22.879 3.38662 23.1138 3.67712 23.1138H10.5062C10.7967 23.1138 11.0315 22.879 11.0315 22.5885C11.0315 22.298 10.7967 22.0632 10.5062 22.0632Z" fill="#FFBB01"/>
<path d="M10.5063 25.7404H6.82909C6.5386 25.7404 6.30378 25.9752 6.30378 26.2657C6.30378 26.5562 6.5386 26.791 6.82909 26.791H10.5063C10.7968 26.791 11.0316 26.5562 11.0316 26.2657C11.0316 25.9752 10.7968 25.7404 10.5063 25.7404Z" fill="#FFBB01"/>
</svg>
