<svg width="20" height="20" viewBox="0 0 20 20" fill="none" xmlns="http://www.w3.org/2000/svg">
<path d="M18.9937 11.098C18.754 11.098 18.5596 11.2923 18.5596 11.5321V14.316C18.5596 14.8442 18.1299 15.2739 17.6018 15.2739H7.39397C7.27885 15.2739 7.16841 15.3196 7.08703 15.401L3.70324 18.7849C3.696 18.7921 3.68906 18.799 3.67065 18.7914C3.65219 18.7837 3.65219 18.774 3.65219 18.7638V15.708C3.65219 15.4683 3.45782 15.2739 3.21807 15.2739H1.82606C1.29789 15.2739 0.868231 14.8443 0.868231 14.3161V2.71629C0.868231 2.18812 1.29789 1.75846 1.82606 1.75846H8.78604C9.02579 1.75846 9.22015 1.56409 9.22015 1.32434C9.22015 1.0846 9.02579 0.890228 8.78604 0.890228H1.82606C0.819147 0.890228 0 1.70937 0 2.71629V14.316C0 15.323 0.819147 16.1421 1.82606 16.1421H2.7839V18.7637C2.7839 19.1282 3.00153 19.4539 3.33835 19.5934C3.45012 19.6397 3.5671 19.6623 3.68298 19.6623C3.91624 19.6623 4.14488 19.571 4.31714 19.3988L7.57381 16.1421H17.6018C18.6087 16.1421 19.4279 15.323 19.4279 14.316V11.5321C19.4278 11.2923 19.2335 11.098 18.9937 11.098Z" fill="#FFBB01"/>
</svg>
