<svg width="19" height="21" viewBox="0 0 19 21" fill="none" xmlns="http://www.w3.org/2000/svg">
<path d="M9.42621 10.9671C9.44728 10.9671 9.46836 10.9671 9.49365 10.9671C9.50208 10.9671 9.51051 10.9671 9.51894 10.9671C9.53158 10.9671 9.54844 10.9671 9.56108 10.9671C10.796 10.946 11.795 10.5119 12.5326 9.68155C14.1553 7.85229 13.8855 4.71643 13.856 4.41718C13.7507 2.17066 12.6885 1.09586 11.8118 0.594296C11.1585 0.219173 10.3956 0.0168595 9.54422 0H9.51472C9.51051 0 9.50208 0 9.49786 0H9.47257C9.00472 0 8.08588 0.0758676 7.20497 0.577437C6.31985 1.07901 5.24085 2.1538 5.13548 4.41718C5.10597 4.71643 4.83622 7.85229 6.45894 9.68155C7.19233 10.5119 8.19125 10.946 9.42621 10.9671ZM6.26085 4.52255C6.26085 4.50991 6.26506 4.49726 6.26506 4.48883C6.40415 1.46677 8.54952 1.14223 9.46836 1.14223H9.48522C9.49365 1.14223 9.50629 1.14223 9.51894 1.14223C10.6569 1.16752 12.5916 1.63115 12.7222 4.48883C12.7222 4.50148 12.7222 4.51412 12.7264 4.52255C12.7307 4.55205 13.0257 7.41816 11.6854 8.92708C11.1543 9.5256 10.4462 9.82064 9.51472 9.82907C9.50629 9.82907 9.50208 9.82907 9.49365 9.82907C9.48522 9.82907 9.481 9.82907 9.47257 9.82907C8.5453 9.82064 7.83299 9.5256 7.30613 8.92708C5.97002 7.42659 6.25663 4.54784 6.26085 4.52255Z" fill="#949494"/>
<path d="M18.1552 16.1682C18.1552 16.164 18.1552 16.1598 18.1552 16.1555C18.1552 16.1218 18.151 16.0881 18.151 16.0502C18.1257 15.2156 18.0709 13.2641 16.2416 12.6403C16.229 12.6361 16.2121 12.6319 16.1995 12.6277C14.2986 12.143 12.718 11.0471 12.7012 11.0345C12.4441 10.8532 12.09 10.9165 11.9088 11.1736C11.7275 11.4307 11.7907 11.7847 12.0479 11.966C12.1195 12.0165 13.797 13.1841 15.896 13.7236C16.8781 14.0734 16.9877 15.1229 17.0172 16.0839C17.0172 16.1218 17.0172 16.1555 17.0214 16.1893C17.0256 16.5686 17.0003 17.1545 16.9329 17.4917C16.2501 17.8794 13.5736 19.2198 9.50208 19.2198C5.44738 19.2198 2.75408 17.8752 2.06706 17.4874C1.99962 17.1503 1.97011 16.5644 1.97854 16.185C1.97854 16.1513 1.98276 16.1176 1.98276 16.0797C2.01226 15.1187 2.12185 14.0692 3.10391 13.7194C5.20291 13.1799 6.88043 12.0081 6.95208 11.9618C7.20919 11.7805 7.27241 11.4265 7.09117 11.1694C6.90994 10.9123 6.55589 10.849 6.29878 11.0303C6.28192 11.0429 4.70978 12.1388 2.80044 12.6235C2.78358 12.6277 2.77094 12.6319 2.75829 12.6361C0.929042 13.2641 0.874249 15.2156 0.84896 16.046C0.84896 16.0839 0.848959 16.1176 0.844745 16.1513C0.844745 16.1555 0.844745 16.1598 0.844745 16.164C0.84053 16.3831 0.836315 17.5085 1.0597 18.0733C1.10185 18.1829 1.17772 18.2756 1.27888 18.3388C1.40532 18.4231 4.43581 20.3536 9.50629 20.3536C14.5768 20.3536 17.6073 18.4189 17.7337 18.3388C17.8306 18.2756 17.9107 18.1829 17.9529 18.0733C18.1636 17.5127 18.1594 16.3874 18.1552 16.1682Z" fill="#949494"/>
</svg>
